<mxfile host="Electron" agent="Mozilla/5.0 (X11; Linux x86_64) AppleWebKit/537.36 (KHTML, like Gecko) draw.io/26.1.1 Chrome/132.0.6834.210 Electron/34.5.0 Safari/537.36" version="26.1.1">
  <diagram name="第 1 页" id="CfdccxkrIJkGtcSyZ1F3">
    <mxGraphModel dx="907" dy="820" grid="1" gridSize="10" guides="1" tooltips="1" connect="1" arrows="1" fold="1" page="1" pageScale="1" pageWidth="1169" pageHeight="827" math="0" shadow="0">
      <root>
        <mxCell id="0" />
        <mxCell id="1" parent="0" />
        <mxCell id="aMmEOcd3ad35POr0mNNm-6" value="" style="edgeStyle=orthogonalEdgeStyle;rounded=0;orthogonalLoop=1;jettySize=auto;html=1;" edge="1" parent="1" source="aMmEOcd3ad35POr0mNNm-2" target="aMmEOcd3ad35POr0mNNm-5">
          <mxGeometry relative="1" as="geometry" />
        </mxCell>
        <mxCell id="aMmEOcd3ad35POr0mNNm-2" value="用户打开助手页面" style="strokeWidth=2;html=1;shape=mxgraph.flowchart.start_2;whiteSpace=wrap;" vertex="1" parent="1">
          <mxGeometry x="40" y="70" width="60" height="60" as="geometry" />
        </mxCell>
        <mxCell id="aMmEOcd3ad35POr0mNNm-8" value="" style="edgeStyle=orthogonalEdgeStyle;rounded=0;orthogonalLoop=1;jettySize=auto;html=1;" edge="1" parent="1" source="aMmEOcd3ad35POr0mNNm-5" target="aMmEOcd3ad35POr0mNNm-7">
          <mxGeometry relative="1" as="geometry" />
        </mxCell>
        <mxCell id="aMmEOcd3ad35POr0mNNm-5" value="输入问题" style="shape=parallelogram;html=1;strokeWidth=2;perimeter=parallelogramPerimeter;whiteSpace=wrap;rounded=1;arcSize=12;size=0.23;" vertex="1" parent="1">
          <mxGeometry x="140" y="80" width="100" height="40" as="geometry" />
        </mxCell>
        <mxCell id="aMmEOcd3ad35POr0mNNm-10" value="" style="edgeStyle=orthogonalEdgeStyle;rounded=0;orthogonalLoop=1;jettySize=auto;html=1;" edge="1" parent="1" source="aMmEOcd3ad35POr0mNNm-7" target="aMmEOcd3ad35POr0mNNm-9">
          <mxGeometry relative="1" as="geometry" />
        </mxCell>
        <mxCell id="aMmEOcd3ad35POr0mNNm-15" style="edgeStyle=orthogonalEdgeStyle;rounded=0;orthogonalLoop=1;jettySize=auto;html=1;" edge="1" parent="1" source="aMmEOcd3ad35POr0mNNm-7" target="aMmEOcd3ad35POr0mNNm-14">
          <mxGeometry relative="1" as="geometry" />
        </mxCell>
        <mxCell id="aMmEOcd3ad35POr0mNNm-7" value="AI导购生成回复" style="rounded=1;whiteSpace=wrap;html=1;absoluteArcSize=1;arcSize=14;strokeWidth=2;" vertex="1" parent="1">
          <mxGeometry x="280" y="80" width="100" height="40" as="geometry" />
        </mxCell>
        <mxCell id="aMmEOcd3ad35POr0mNNm-12" value="" style="edgeStyle=orthogonalEdgeStyle;rounded=0;orthogonalLoop=1;jettySize=auto;html=1;" edge="1" parent="1" source="aMmEOcd3ad35POr0mNNm-9" target="aMmEOcd3ad35POr0mNNm-11">
          <mxGeometry relative="1" as="geometry" />
        </mxCell>
        <mxCell id="aMmEOcd3ad35POr0mNNm-9" value="提取回复关键词" style="rounded=1;whiteSpace=wrap;html=1;absoluteArcSize=1;arcSize=14;strokeWidth=2;" vertex="1" parent="1">
          <mxGeometry x="280" y="160" width="100" height="40" as="geometry" />
        </mxCell>
        <mxCell id="aMmEOcd3ad35POr0mNNm-16" value="" style="edgeStyle=orthogonalEdgeStyle;rounded=0;orthogonalLoop=1;jettySize=auto;html=1;" edge="1" parent="1" source="aMmEOcd3ad35POr0mNNm-11" target="aMmEOcd3ad35POr0mNNm-13">
          <mxGeometry relative="1" as="geometry" />
        </mxCell>
        <mxCell id="aMmEOcd3ad35POr0mNNm-11" value="进行模糊搜索" style="rounded=1;whiteSpace=wrap;html=1;absoluteArcSize=1;arcSize=14;strokeWidth=2;" vertex="1" parent="1">
          <mxGeometry x="420" y="160" width="100" height="40" as="geometry" />
        </mxCell>
        <mxCell id="aMmEOcd3ad35POr0mNNm-13" value="展示搜索结果" style="shape=parallelogram;html=1;strokeWidth=2;perimeter=parallelogramPerimeter;whiteSpace=wrap;rounded=1;arcSize=12;size=0.23;" vertex="1" parent="1">
          <mxGeometry x="560" y="160" width="100" height="40" as="geometry" />
        </mxCell>
        <mxCell id="aMmEOcd3ad35POr0mNNm-18" value="" style="edgeStyle=orthogonalEdgeStyle;rounded=0;orthogonalLoop=1;jettySize=auto;html=1;" edge="1" parent="1" source="aMmEOcd3ad35POr0mNNm-14" target="aMmEOcd3ad35POr0mNNm-17">
          <mxGeometry relative="1" as="geometry" />
        </mxCell>
        <mxCell id="aMmEOcd3ad35POr0mNNm-14" value="展示回复" style="shape=parallelogram;html=1;strokeWidth=2;perimeter=parallelogramPerimeter;whiteSpace=wrap;rounded=1;arcSize=12;size=0.23;" vertex="1" parent="1">
          <mxGeometry x="560" y="80" width="100" height="40" as="geometry" />
        </mxCell>
        <mxCell id="aMmEOcd3ad35POr0mNNm-26" value="" style="edgeStyle=orthogonalEdgeStyle;rounded=0;orthogonalLoop=1;jettySize=auto;html=1;" edge="1" parent="1" source="aMmEOcd3ad35POr0mNNm-17" target="aMmEOcd3ad35POr0mNNm-25">
          <mxGeometry relative="1" as="geometry" />
        </mxCell>
        <mxCell id="aMmEOcd3ad35POr0mNNm-27" value="是" style="edgeLabel;html=1;align=center;verticalAlign=middle;resizable=0;points=[];" vertex="1" connectable="0" parent="aMmEOcd3ad35POr0mNNm-26">
          <mxGeometry x="-0.1889" y="1" relative="1" as="geometry">
            <mxPoint y="-9" as="offset" />
          </mxGeometry>
        </mxCell>
        <mxCell id="aMmEOcd3ad35POr0mNNm-17" value="满意&lt;div&gt;搜索结果&lt;/div&gt;" style="strokeWidth=2;html=1;shape=mxgraph.flowchart.decision;whiteSpace=wrap;" vertex="1" parent="1">
          <mxGeometry x="700" y="60" width="80" height="80" as="geometry" />
        </mxCell>
        <mxCell id="aMmEOcd3ad35POr0mNNm-19" style="edgeStyle=orthogonalEdgeStyle;rounded=0;orthogonalLoop=1;jettySize=auto;html=1;entryX=0.5;entryY=1;entryDx=0;entryDy=0;entryPerimeter=0;" edge="1" parent="1" source="aMmEOcd3ad35POr0mNNm-13" target="aMmEOcd3ad35POr0mNNm-17">
          <mxGeometry relative="1" as="geometry">
            <mxPoint x="790" y="190" as="targetPoint" />
          </mxGeometry>
        </mxCell>
        <mxCell id="aMmEOcd3ad35POr0mNNm-20" style="edgeStyle=orthogonalEdgeStyle;rounded=0;orthogonalLoop=1;jettySize=auto;html=1;entryX=0.568;entryY=-0.004;entryDx=0;entryDy=0;entryPerimeter=0;exitX=0.5;exitY=0;exitDx=0;exitDy=0;exitPerimeter=0;" edge="1" parent="1" source="aMmEOcd3ad35POr0mNNm-17" target="aMmEOcd3ad35POr0mNNm-5">
          <mxGeometry relative="1" as="geometry">
            <Array as="points">
              <mxPoint x="740" y="20" />
              <mxPoint x="197" y="20" />
            </Array>
          </mxGeometry>
        </mxCell>
        <mxCell id="aMmEOcd3ad35POr0mNNm-24" value="否" style="edgeLabel;html=1;align=center;verticalAlign=middle;resizable=0;points=[];" vertex="1" connectable="0" parent="aMmEOcd3ad35POr0mNNm-20">
          <mxGeometry x="-0.9378" y="1" relative="1" as="geometry">
            <mxPoint x="11" as="offset" />
          </mxGeometry>
        </mxCell>
        <mxCell id="aMmEOcd3ad35POr0mNNm-22" value="" style="edgeStyle=orthogonalEdgeStyle;rounded=0;orthogonalLoop=1;jettySize=auto;html=1;" edge="1" parent="1" source="aMmEOcd3ad35POr0mNNm-21" target="aMmEOcd3ad35POr0mNNm-5">
          <mxGeometry relative="1" as="geometry" />
        </mxCell>
        <mxCell id="aMmEOcd3ad35POr0mNNm-21" value="&lt;div&gt;&lt;br&gt;&lt;/div&gt;前轮对话记录" style="strokeWidth=2;html=1;shape=mxgraph.flowchart.database;whiteSpace=wrap;" vertex="1" parent="1">
          <mxGeometry x="140" y="150" width="100" height="60" as="geometry" />
        </mxCell>
        <mxCell id="aMmEOcd3ad35POr0mNNm-25" value="导购结束&lt;div&gt;用户选购商品&lt;/div&gt;" style="strokeWidth=2;html=1;shape=mxgraph.flowchart.terminator;whiteSpace=wrap;" vertex="1" parent="1">
          <mxGeometry x="820" y="70" width="100" height="60" as="geometry" />
        </mxCell>
      </root>
    </mxGraphModel>
  </diagram>
</mxfile>
